<svg width="25" height="25" fill="none" xmlns="http://www.w3.org/2000/svg"><circle cx="12.5" cy="12.5" r="12.5" fill="#0B2647"/><path d="M11.427 12.676a1.45 1.45 0 00-1.449-1.449 1.45 1.45 0 00-1.448 1.449h.88a.57.57 0 011.138 0h.879zm3.595-1.449a1.45 1.45 0 00-1.449 1.449h.88a.57.57 0 011.138 0h.879a1.45 1.45 0 00-1.448-1.449zM12.5 15.248a1.586 1.586 0 01-1.36-.778l-.757.446a2.468 2.468 0 002.117 1.21c.865 0 1.676-.463 2.117-1.21l-.757-.446c-.283.48-.804.777-1.36.777z" fill="#FAFAFA"/><path d="M19.428 11.12a1.942 1.942 0 00-1.013-.538A6.228 6.228 0 0012.5 6.283h-.295A1.285 1.285 0 0110.922 5h-.879c0 .48.158.924.424 1.283h-.279A1.285 1.285 0 018.905 5h-.879c0 .955.622 1.767 1.483 2.052a6.218 6.218 0 00-2.924 3.53 1.943 1.943 0 00-1.013.537A1.94 1.94 0 005 12.5c0 .515.199 1 .56 1.368a1.94 1.94 0 001.025.55 6.228 6.228 0 005.915 4.299 6.228 6.228 0 005.915-4.3 1.94 1.94 0 001.026-.55A1.94 1.94 0 0020 12.5c0-.521-.203-1.011-.572-1.38zm-1.36 2.453l-.329.006-.086.319a5.346 5.346 0 01-5.153 3.94 5.346 5.346 0 01-5.153-3.94l-.086-.319-.33-.006A1.078 1.078 0 015.879 12.5a1.069 1.069 0 011.052-1.073l.33-.006.086-.319a5.346 5.346 0 015.153-3.94 1.442 1.442 0 010 2.881c-.794 0-1.44-.646-1.44-1.44h-.88a2.323 2.323 0 002.32 2.32 2.322 2.322 0 002.085-3.336 5.34 5.34 0 013.068 3.515l.086.319.33.006c.279.005.54.117.738.314.203.203.314.472.314.759 0 .58-.472 1.062-1.052 1.073z" fill="#FAFAFA"/></svg>