<svg width="25" height="25" fill="none" xmlns="http://www.w3.org/2000/svg"><circle cx="12.5" cy="12.5" r="12.5" fill="#0B2647"/><path d="M18.98 19.507L17.84 8.65a.447.447 0 00-.444-.4h-2.143v-.488A2.765 2.765 0 0012.491 5 2.765 2.765 0 009.73 7.762v.488H7.587a.447.447 0 00-.445.4l-1.14 10.857a.447.447 0 00.444.493h12.09a.447.447 0 00.444-.493zM10.622 7.762c0-1.03.839-1.87 1.87-1.87 1.03 0 1.868.84 1.868 1.87v.488h-3.738v-.488zm-3.68 11.345L7.99 9.143h1.74v.984a.446.446 0 00.893 0v-.984h3.738v.984a.446.446 0 00.893 0v-.984h1.741l1.046 9.964H6.942z" fill="#FAFAFA"/></svg>