<svg width="25" height="25" fill="none" xmlns="http://www.w3.org/2000/svg"><circle cx="12.5" cy="12.5" r="12.5" fill="#0B2647"/><path d="M19.71 7.896h-.989v-.338a.29.29 0 00-.21-.29A8.19 8.19 0 0016.415 7c-1.163 0-2.748.262-3.92 1.454C11.334 7.25 9.737 7 8.577 7a8.19 8.19 0 00-2.096.268.29.29 0 00-.21.29v.335h-.98a.29.29 0 00-.29.29v9.287a.29.29 0 00.433.253c.03-.014 2.937-1.605 6.996-.581h.069a.291.291 0 00.07 0c4.07-1.033 6.977.555 6.995.581a.29.29 0 00.436-.25V8.186a.29.29 0 00-.29-.29zM5.581 17.008v-8.53h.694v7.291a.29.29 0 00.335.29c.601-.09 1.209-.14 1.817-.145a7.542 7.542 0 012.483.376 10.689 10.689 0 00-5.33.718zm2.846-1.672a12.79 12.79 0 00-1.582.102v-7.65a8.019 8.019 0 011.724-.192c1.088 0 2.588.25 3.63 1.425l.008 7.242c-.605-.395-1.785-.927-3.78-.927zm4.361-6.315c1.041-1.163 2.542-1.425 3.629-1.425.58.002 1.158.066 1.724.192v7.65a12.788 12.788 0 00-1.573-.105c-1.983 0-3.166.532-3.78.928V9.02zm6.627 7.987a10.691 10.691 0 00-5.342-.718 7.561 7.561 0 012.495-.375c.612.003 1.224.05 1.829.142a.29.29 0 00.334-.29v-7.29h.695l-.011 8.53z" fill="#FAFAFA"/></svg>