<svg width="171" height="40" fill="none" xmlns="http://www.w3.org/2000/svg"><path d="M57.177 17.924V.305H52v17.619h5.177zm10.879.306c1.099 0 2.124-.147 3.052-.428l1.124 1.44h4.395l-2.454-3.174c1.93-1.6 2.747-4.054 2.747-6.96C76.92 3.418 73.44 0 68.056 0c-5.385 0-8.877 3.54-8.877 9.108 0 5.593 3.346 9.121 8.877 9.121zm0-3.969c-2.247 0-3.688-2.076-3.688-5.153 0-3.064 1.441-5.14 3.688-5.14 2.234 0 3.724 2.076 3.724 5.14 0 1.1-.195 2.21-.623 3.065l-.61-.793H66.15l2.21 2.869c-.098.012-.195.012-.305.012zM57.299 28.998v-6.813h-5.177v17.619H57.3V32.88h.098l5.14 6.923h6.19l-6.923-9.353 6.594-8.266h-5.556l-5.445 6.813H57.3zm21.917 10.806c3.772 0 6.214-2.04 6.214-5.128 0-2.332-1.99-4.127-4.37-4.188v-.098c2.038-.256 3.577-1.782 3.577-3.81 0-2.746-2.113-4.395-5.715-4.395h-8.656v17.619h8.95zm-3.773-14.066h2.075c1.307 0 2.088.66 2.088 1.746 0 1.062-.83 1.758-2.16 1.758h-2.003v-3.504zm0 10.513v-4.042h2.246c1.551 0 2.479.733 2.479 1.99 0 1.331-.916 2.052-2.515 2.052h-2.21zm22.893 3.553h5.519l-5.751-17.619h-6.495l-5.751 17.619h5.274l.916-3.504h5.372l.916 3.504zm-3.65-13.553h.097l1.697 6.398h-3.492l1.697-6.398zm10.878-4.066v17.619h5.177v-4.81h2.515c4.115 0 6.911-2.504 6.911-6.386 0-3.92-2.637-6.423-6.557-6.423h-8.046zm5.177 3.895h1.49c1.685 0 2.71.867 2.71 2.54 0 1.685-1.025 2.552-2.747 2.552h-1.453V26.08zm20.525 13.724V26.3h4.639v-4.115h-14.456V26.3h4.64v13.504h5.177zm16.446 0h5.519l-5.751-17.619h-6.495l-5.751 17.619h5.275l.915-3.504h5.373l.915 3.504zm-3.65-13.553h.097l1.697 6.398h-3.492l1.698-6.398zm26.885 13.553V22.185h-13.601l-.415 9.89c-.086 1.893-.452 3.358-2.052 3.358-.439 0-.769-.074-.976-.11v4.48c.256.074.928.196 1.794.196 4.188 0 5.739-3.089 5.947-7.521l.293-6.19h3.834v13.516h5.176z" fill="#FAFAFA"/><path fill="#FF7F5C" d="M32 0h8v24h-8zM8 40H0V16h8zm24-8h8v8h-8zM8 8H0V0h8z"/><path fill="#FF7F5C" d="M0 40v-8h24v8zM16 8V0h24v8z"/></svg>