<svg width="25" height="25" viewBox="0 0 25 25" fill="none" xmlns="http://www.w3.org/2000/svg">
<circle cx="12.5" cy="12.5" r="12.5" fill="#0B2647"/>
<path d="M11.4265 12.6756C11.4265 11.8771 10.7769 11.2275 9.97838 11.2275C9.17991 11.2275 8.53027 11.8771 8.53027 12.6756H9.40918C9.40918 12.3618 9.66454 12.1064 9.97838 12.1064C10.2922 12.1064 10.5476 12.3618 10.5476 12.6756H11.4265Z" fill="#FAFAFA"/>
<path d="M15.0216 11.2275C14.2231 11.2275 13.5735 11.8771 13.5735 12.6756H14.4524C14.4524 12.3618 14.7077 12.1064 15.0216 12.1064C15.3354 12.1064 15.5908 12.3618 15.5908 12.6756H16.4697C16.4697 11.8771 15.8201 11.2275 15.0216 11.2275Z" fill="#FAFAFA"/>
<path d="M12.5 15.2475C11.9444 15.2475 11.4234 14.9495 11.1402 14.4698L10.3833 14.9164C10.8237 15.6627 11.6348 16.1263 12.5 16.1263C13.3652 16.1263 14.1763 15.6627 14.6167 14.9164L13.8597 14.4697C13.5767 14.9494 13.0556 15.2475 12.5 15.2475Z" fill="#FAFAFA"/>
<path d="M19.4282 11.1192C19.1483 10.8396 18.7968 10.6547 18.4152 10.5823C17.5913 8.03623 15.2012 6.2832 12.5 6.2832H12.2054C11.4978 6.2832 10.9222 5.70753 10.9222 5H10.0433C10.0433 5.48012 10.2008 5.92402 10.4665 6.2832H10.1881C9.48052 6.2832 8.90488 5.70753 8.90488 5H8.02597C8.02597 5.95494 8.64848 6.7667 9.5088 7.05218C8.14814 7.80023 7.08165 9.04697 6.5848 10.5823C6.20328 10.6547 5.85169 10.8397 5.57155 11.1195C5.20298 11.4885 5 11.9787 5 12.5C5 13.0149 5.19862 13.5006 5.55931 13.8678C5.8412 14.1548 6.1972 14.3442 6.5848 14.4177C7.40868 16.9638 9.79881 18.7168 12.5 18.7168C15.2012 18.7168 17.5913 16.9638 18.4152 14.4177C18.8028 14.3442 19.1588 14.1548 19.4407 13.8678C19.8014 13.5006 20 13.0149 20 12.5C20 11.9787 19.797 11.4885 19.4282 11.1192ZM18.0689 13.5729L17.7392 13.5792L17.653 13.8976C17.0256 16.2176 14.9066 17.8379 12.5 17.8379C10.0933 17.8379 7.97433 16.2176 7.34696 13.8976L7.26085 13.5792L6.93105 13.5729C6.35088 13.5619 5.87887 13.0806 5.87887 12.5C5.87887 12.2133 5.99055 11.9436 6.19296 11.741C6.39036 11.5438 6.65248 11.4323 6.93096 11.4271L7.26082 11.4209L7.34694 11.1024C7.97433 8.78245 10.0933 7.16213 12.5 7.16213C13.2943 7.16213 13.9406 7.80835 13.9406 8.60268C13.9406 9.39701 13.2943 10.0433 12.5 10.0433C11.7057 10.0433 11.0594 9.39704 11.0594 8.60271H10.1805C10.1805 9.88167 11.221 10.9222 12.5 10.9222C13.779 10.9222 14.8195 9.88167 14.8195 8.60271C14.8195 8.23873 14.735 7.89423 14.5849 7.58735C16.059 8.21437 17.2167 9.48911 17.653 11.1024L17.7392 11.4209L18.069 11.4271C18.3475 11.4323 18.6096 11.5438 18.8067 11.7407C19.0095 11.9437 19.1211 12.2133 19.1211 12.5C19.1211 13.0807 18.6491 13.562 18.0689 13.5729Z" fill="#FAFAFA"/>
</svg>
