<svg width="25" height="25" viewBox="0 0 25 25" fill="none" xmlns="http://www.w3.org/2000/svg">
<circle cx="12.5" cy="12.5" r="12.5" fill="#0B2647"/>
<path d="M18.9801 19.507L17.8401 8.65032C17.8162 8.42304 17.6246 8.25047 17.396 8.25047H15.2533V7.76192C15.2533 6.23905 14.0142 5 12.4913 5C10.9684 5 9.72931 6.23905 9.72931 7.76192V8.25047H7.58651C7.35798 8.25047 7.1664 8.42304 7.14248 8.65032L6.00242 19.507C5.98926 19.6328 6.03012 19.7583 6.11469 19.8524C6.19938 19.9463 6.32 20 6.44645 20H18.536C18.6626 20 18.7832 19.9463 18.8678 19.8524C18.9526 19.7583 18.9933 19.6328 18.9801 19.507ZM10.6222 7.76192C10.6222 6.73138 11.4607 5.89287 12.4913 5.89287C13.5219 5.89287 14.3604 6.73138 14.3604 7.76192V8.25047H10.6222V7.76192ZM6.94221 19.1071L7.98855 9.14333H9.72931V10.1272C9.72931 10.3737 9.92923 10.5736 10.1757 10.5736C10.4222 10.5736 10.6222 10.3737 10.6222 10.1272V9.14333H14.3604V10.1272C14.3604 10.3737 14.5603 10.5736 14.8068 10.5736C15.0533 10.5736 15.2533 10.3737 15.2533 10.1272V9.14333H16.994L18.0403 19.1071H6.94221Z" fill="#FAFAFA"/>
</svg>
