<svg width="25" height="25" viewBox="0 0 25 25" fill="none" xmlns="http://www.w3.org/2000/svg">
<circle cx="12.5" cy="12.5" r="12.5" fill="#0B2647"/>
<path d="M19.7092 7.89555C19.7083 7.89555 19.7073 7.89555 19.7063 7.89555H18.7207V7.55827C18.726 7.42478 18.6396 7.30481 18.5113 7.26752C17.8271 7.0882 17.1224 6.99828 16.415 7.00002C15.252 7.00002 13.6674 7.2617 12.4956 8.45379C11.3326 7.25007 9.73638 7.00002 8.57627 7.00002C7.86887 6.99828 7.16423 7.0882 6.47994 7.26752C6.35164 7.30481 6.26529 7.42478 6.2706 7.55827V7.89264H5.29075C5.13019 7.89264 5 8.02282 5 8.18339V17.4701C5 17.6306 5.13019 17.7608 5.29075 17.7608C5.34069 17.7607 5.38976 17.7477 5.43322 17.723C5.4623 17.7085 8.36984 16.1181 12.4288 17.1415H12.4724H12.4985C12.5217 17.1443 12.5451 17.1443 12.5683 17.1415C16.6389 16.1093 19.5464 17.6969 19.5639 17.723C19.6538 17.775 19.7647 17.775 19.8546 17.723C19.944 17.6714 19.9994 17.5762 20 17.473V8.1863C20 8.02573 19.8699 7.89555 19.7092 7.89555ZM5.58151 17.0078V8.47705H6.27641V15.7692C6.27459 15.9297 6.40329 16.0614 6.56386 16.0632C6.57956 16.0634 6.59526 16.0623 6.61078 16.0599C7.21227 15.9681 7.81955 15.9195 8.42799 15.9145C9.27081 15.8999 10.1101 16.0267 10.911 16.2896C9.10236 16.0709 7.26777 16.3181 5.58151 17.0078ZM8.42799 15.3359C7.89914 15.3371 7.37092 15.3711 6.84629 15.4377V7.78797C7.41239 7.66185 7.99048 7.59749 8.57046 7.59607C9.65788 7.59607 11.1582 7.84612 12.1991 9.02076L12.2078 16.2634C11.603 15.868 10.4226 15.3359 8.42799 15.3359ZM12.7893 9.02076C13.8302 7.85775 15.3305 7.59607 16.4179 7.59607C16.9979 7.59778 17.5759 7.66211 18.1421 7.78797V15.4377C17.6204 15.3705 17.0951 15.3355 16.5691 15.333C14.5862 15.333 13.4028 15.8651 12.7893 16.2605V9.02076ZM19.4156 17.0078C17.7257 16.3162 15.8869 16.069 14.0744 16.2896C14.8791 16.0258 15.7224 15.8989 16.5691 15.9145C17.1814 15.918 17.7926 15.9656 18.3979 16.057C18.5567 16.0811 18.7049 15.9719 18.729 15.8132C18.7314 15.7977 18.7325 15.782 18.7323 15.7663V8.47705H19.4272L19.4156 17.0078Z" fill="#FAFAFA"/>
</svg>
